<svg width="27" height="28" viewBox="0 0 27 28" fill="none" xmlns="http://www.w3.org/2000/svg">
<mask id="path-1-outside-1_22_21" maskUnits="userSpaceOnUse" x="-0.664307" y="0" width="27" height="28" fill="black">
<rect fill="white" x="-0.664307" width="27" height="28"/>
<path d="M17.241 1C17.5334 1 17.8195 1.01251 18.0994 1.03613H18.1726V1.04297C19.3561 1.15205 20.4253 1.47381 21.3806 2.00879C22.5806 2.65679 23.5172 3.60454 24.1892 4.85254C24.8611 6.07647 25.197 7.55243 25.197 9.28027C25.197 10.8163 24.8733 12.1848 24.2253 13.3848C23.6014 14.5607 22.6889 15.4843 21.489 16.1562C20.313 16.8282 18.8727 17.1641 17.1687 17.1641H11.4451V26.2412C10.4778 25.7822 9.35713 25.1321 8.65796 24.333C8.4854 24.1358 8.32103 23.909 8.16479 23.6631V3.91602H4.0564C3.62296 3.77163 2.77273 3.44778 2.32495 3C1.76668 2.44172 1.40078 1.25796 1.33569 1.03613H8.20483V1H17.241ZM11.3728 14.2842H17.1326C18.4764 14.2842 19.6166 13.8763 20.5525 13.0605C21.4885 12.2445 21.9568 10.96 21.9568 9.20801C21.9567 7.40817 21.4884 6.07586 20.5525 5.21191C19.7674 4.46721 18.847 4.036 17.7917 3.91602H11.3728V14.2842Z"/>
</mask>
<path d="M17.241 1C17.5334 1 17.8195 1.01251 18.0994 1.03613H18.1726V1.04297C19.3561 1.15205 20.4253 1.47381 21.3806 2.00879C22.5806 2.65679 23.5172 3.60454 24.1892 4.85254C24.8611 6.07647 25.197 7.55243 25.197 9.28027C25.197 10.8163 24.8733 12.1848 24.2253 13.3848C23.6014 14.5607 22.6889 15.4843 21.489 16.1562C20.313 16.8282 18.8727 17.1641 17.1687 17.1641H11.4451V26.2412C10.4778 25.7822 9.35713 25.1321 8.65796 24.333C8.4854 24.1358 8.32103 23.909 8.16479 23.6631V3.91602H4.0564C3.62296 3.77163 2.77273 3.44778 2.32495 3C1.76668 2.44172 1.40078 1.25796 1.33569 1.03613H8.20483V1H17.241ZM11.3728 14.2842H17.1326C18.4764 14.2842 19.6166 13.8763 20.5525 13.0605C21.4885 12.2445 21.9568 10.96 21.9568 9.20801C21.9567 7.40817 21.4884 6.07586 20.5525 5.21191C19.7674 4.46721 18.847 4.036 17.7917 3.91602H11.3728V14.2842Z" fill="#172522"/>
<path d="M17.241 1L17.241 0H17.241V1ZM18.0994 1.03613L18.0152 2.03259L18.0572 2.03613H18.0994V1.03613ZM18.1726 1.03613H19.1726V0.0361328H18.1726V1.03613ZM18.1726 1.04297H17.1726V1.95504L18.0808 2.03875L18.1726 1.04297ZM21.3806 2.00879L20.892 2.8813L20.8987 2.88505L20.9055 2.88869L21.3806 2.00879ZM24.1892 4.85254L23.3087 5.32665L23.3126 5.33376L24.1892 4.85254ZM25.197 9.28027H26.197V9.28027L25.197 9.28027ZM24.2253 13.3848L23.3454 12.9096L23.342 12.916L24.2253 13.3848ZM21.489 16.1562L21.0004 15.2837L20.9929 15.288L21.489 16.1562ZM11.4451 17.1641V16.1641H10.4451V17.1641H11.4451ZM11.4451 26.2412L11.0164 27.1447L12.4451 27.8226V26.2412H11.4451ZM8.65796 24.333L7.90531 24.9914L7.90538 24.9915L8.65796 24.333ZM8.16479 23.6631H7.16479V23.9539L7.32072 24.1993L8.16479 23.6631ZM8.16479 3.91602H9.16479V2.91602H8.16479V3.91602ZM4.0564 3.91602L3.74035 4.86476L3.89422 4.91602H4.0564V3.91602ZM1.33569 1.03613V0.0361328H0.000116944L0.376146 1.31768L1.33569 1.03613ZM8.20483 1.03613V2.03613H9.20483V1.03613H8.20483ZM8.20483 1V0H7.20483V1H8.20483ZM11.3728 14.2842H10.3728V15.2842H11.3728V14.2842ZM20.5525 13.0605L21.2096 13.8144L21.2096 13.8143L20.5525 13.0605ZM21.9568 9.20801H22.9568V9.20798L21.9568 9.20801ZM20.5525 5.21191L19.8642 5.93752L19.8742 5.94672L20.5525 5.21191ZM17.7917 3.91602L17.9047 2.92242L17.8484 2.91602H17.7917V3.91602ZM11.3728 3.91602V2.91602H10.3728V3.91602H11.3728ZM17.241 1L17.241 2C17.5049 2 17.7629 2.01129 18.0152 2.03259L18.0994 1.03613L18.1835 0.0396771C17.8762 0.0137346 17.562 1.60933e-06 17.241 0L17.241 1ZM18.0994 1.03613V2.03613H18.1726V1.03613V0.0361328H18.0994V1.03613ZM18.1726 1.03613H17.1726V1.04297H18.1726H19.1726V1.03613H18.1726ZM18.1726 1.04297L18.0808 2.03875C19.137 2.1361 20.0691 2.42048 20.892 2.8813L21.3806 2.00879L21.8692 1.13628C20.7815 0.527151 19.5751 0.167997 18.2644 0.0471892L18.1726 1.04297ZM21.3806 2.00879L20.9055 2.88869C21.9269 3.44027 22.7256 4.24372 23.3087 5.32664L24.1892 4.85254L25.0697 4.37844C24.3088 2.96536 23.2343 1.87331 21.8558 1.12888L21.3806 2.00879ZM24.1892 4.85254L23.3126 5.33376C23.8865 6.37911 24.197 7.6812 24.197 9.28028L25.197 9.28027L26.197 9.28027C26.197 7.42366 25.8357 5.77383 25.0658 4.37132L24.1892 4.85254ZM25.197 9.28027H24.197C24.197 10.6719 23.905 11.8734 23.3454 12.9096L24.2253 13.3848L25.1052 13.8599C25.8417 12.4962 26.197 10.9607 26.197 9.28027H25.197ZM24.2253 13.3848L23.342 12.916C22.8113 13.9161 22.0388 14.7022 21.0004 15.2838L21.489 16.1562L21.9776 17.0287C23.339 16.2663 24.3914 15.2052 25.1087 13.8535L24.2253 13.3848ZM21.489 16.1562L20.9929 15.288C20.0023 15.854 18.743 16.1641 17.1687 16.1641V17.1641V18.1641C19.0024 18.1641 20.6237 17.8025 21.9852 17.0245L21.489 16.1562ZM17.1687 17.1641V16.1641H11.4451V17.1641V18.1641H17.1687V17.1641ZM11.4451 17.1641H10.4451V26.2412H11.4451H12.4451V17.1641H11.4451ZM11.4451 26.2412L11.8738 25.3378C10.933 24.8914 9.96879 24.3125 9.41054 23.6745L8.65796 24.333L7.90538 24.9915C8.74546 25.9516 10.0226 26.6731 11.0164 27.1447L11.4451 26.2412ZM8.65796 24.333L9.41061 23.6746C9.27951 23.5247 9.1451 23.3413 9.00887 23.1269L8.16479 23.6631L7.32072 24.1993C7.49696 24.4767 7.69129 24.7468 7.90531 24.9914L8.65796 24.333ZM8.16479 23.6631H9.16479V3.91602H8.16479H7.16479V23.6631H8.16479ZM8.16479 3.91602V2.91602H4.0564V3.91602V4.91602H8.16479V3.91602ZM4.0564 3.91602L4.37245 2.96727C4.17846 2.90265 3.90034 2.80067 3.62897 2.67035C3.34193 2.53249 3.13705 2.39789 3.03206 2.29289L2.32495 3L1.61784 3.70711C1.96063 4.04989 2.40475 4.3011 2.76313 4.47321C3.13718 4.65285 3.50089 4.78499 3.74035 4.86476L4.0564 3.91602ZM2.32495 3L3.03206 2.29289C2.89299 2.15382 2.72252 1.86497 2.56387 1.49646C2.4166 1.1544 2.32185 0.845272 2.29524 0.754584L1.33569 1.03613L0.376146 1.31768C0.414625 1.44882 0.535365 1.84249 0.726884 2.28734C0.907016 2.70573 1.19864 3.2879 1.61784 3.70711L2.32495 3ZM1.33569 1.03613V2.03613H8.20483V1.03613V0.0361328H1.33569V1.03613ZM8.20483 1.03613H9.20483V1H8.20483H7.20483V1.03613H8.20483ZM8.20483 1V2H17.241V1V0H8.20483V1ZM11.3728 14.2842V15.2842H17.1326V14.2842V13.2842H11.3728V14.2842ZM17.1326 14.2842V15.2842C18.6964 15.2842 20.0759 14.8025 21.2096 13.8144L20.5525 13.0605L19.8954 12.3067C19.1572 12.9501 18.2564 13.2842 17.1326 13.2842V14.2842ZM20.5525 13.0605L21.2096 13.8143C22.4415 12.7404 22.9568 11.1262 22.9568 9.20801H21.9568H20.9568C20.9568 10.7938 20.5355 11.7487 19.8954 12.3068L20.5525 13.0605ZM21.9568 9.20801L22.9568 9.20798C22.9567 7.24703 22.4448 5.59779 21.2308 4.47711L20.5525 5.21191L19.8742 5.94672C20.532 6.55394 20.9567 7.5693 20.9568 9.20804L21.9568 9.20801ZM20.5525 5.21191L21.2407 4.48638C20.3007 3.59476 19.1794 3.06734 17.9047 2.92242L17.7917 3.91602L17.6788 4.90961C18.5147 5.00465 19.2341 5.33966 19.8643 5.93745L20.5525 5.21191ZM17.7917 3.91602V2.91602H11.3728V3.91602V4.91602H17.7917V3.91602ZM11.3728 3.91602H10.3728V14.2842H11.3728H12.3728V3.91602H11.3728Z" fill="white" mask="url(#path-1-outside-1_22_21)"/>
</svg>
