<svg width="24" height="26" viewBox="0 0 24 26" fill="none" xmlns="http://www.w3.org/2000/svg">
<path d="M15.9053 0C16.1977 1.45692e-06 16.4839 0.0125111 16.7637 0.0361328H16.8369V0.0429688C18.0204 0.152046 19.0896 0.473814 20.0449 1.00879C21.2449 1.65679 22.1815 2.60454 22.8535 3.85254C23.5254 5.07647 23.8613 6.55243 23.8613 8.28027C23.8613 9.81627 23.5376 11.1848 22.8896 12.3848C22.2657 13.5607 21.3532 14.4843 20.1533 15.1562C18.9773 15.8282 17.537 16.1641 15.833 16.1641H10.1094V25.2412C9.14209 24.7822 8.02143 24.1321 7.32227 23.333C7.14971 23.1358 6.98534 22.909 6.8291 22.6631V2.91602H2.7207C2.28727 2.77163 1.43704 2.44778 0.989258 2C0.430982 1.44172 0.0650875 0.257958 0 0.0361328H6.86914V0H15.9053ZM10.0371 13.2842H15.7969C17.1407 13.2842 18.2809 12.8763 19.2168 12.0605C20.1528 11.2445 20.6211 9.96001 20.6211 8.20801C20.621 6.40817 20.1527 5.07586 19.2168 4.21191C18.4317 3.46721 17.5113 3.036 16.4561 2.91602H10.0371V13.2842Z" fill="white"/>
</svg>
